# xmcd
#
# Track frame offsets: 
#        150
#        11765
#        20664
#        33105
#        41321
#        51772
#        64626
#        77960
#        90741
#        100158
#        111510
#        120969
#        131349
#        145386
#        155314
#        167671
#        184675
#        193964
#        204245
#        218145
#
# Disc length: 3047 seconds
#
# Revision: 0
# Processed by: cddbd v1.5.2PL0 Copyright (c) Steve Scherf et al.
# Submitted via: ExactAudioCopy v0.99pb4
#
DISCID=0c0be514
DTITLE=Willie Nelson - Broken Promises
DYEAR=1900
DGENRE=Country
TTITLE0=Night Life
TTITLE1=Why Are You Picking On Me?
TTITLE2=Shelter Of Your Arms
TTITLE3=You Wouldn't Cross The Street To Say Goodbye
TTITLE4=Blame It On The Times
TTITLE5=I Just Don't Understand
TTITLE6=You'll Always Have Someone
TTITLE7=Any Old Arms Won't Do
TTITLE8=Right From Wrong
TTITLE9=Suffering In Silence
TTITLE10=One Step Beyond
TTITLE11=Broken Promises
TTITLE12=No Tomorrow In Sight
TTITLE13=I Didn't Sleep A Wink
TTITLE14=I Can't Find The Time
TTITLE15=I Let My Mind Wander
TTITLE16=Waiting Time
TTITLE17=New Way To Cry
TTITLE18=Home Is Where You're Happy
TTITLE19=I Feel Sorry For Him
EXTD=
EXTT0=
EXTT1=
EXTT2=
EXTT3=
EXTT4=
EXTT5=
EXTT6=
EXTT7=
EXTT8=
EXTT9=
EXTT10=
EXTT11=
EXTT12=
EXTT13=
EXTT14=
EXTT15=
EXTT16=
EXTT17=
EXTT18=
EXTT19=
PLAYORDER=
